# xmcd
#
# Track frame offsets: 
#        150
#        31153
#        51481
#        71384
#        86112
#        104581
#        128319
#        146560
#        160936
#        171640
#        183548
#        198918
#        214130
#        230996
#        254442
#        274612
#        292466
#        307225
#        327107
#
# Disc length: 4677 seconds
#
# Revision: 0
# Processed by: cddbd v1.5.2PL0 Copyright (c) Steve Scherf et al.
# Submitted via: ExactAudioCopy v1.1
#
DISCID=31124313
DTITLE=Various Artist - 1000 Klassiekers Radio 2 Vol. 02 - CD 5
DYEAR=2010
DGENRE=Pop
TTITLE0=The Temptations - Papa Was A Rollin' Stone
TTITLE1=Kiss - I Was Made For Lovin' You
TTITLE2=The Moody Blues - Nights In White Satin
TTITLE3=Gloria Gaynor - I Will Survive
TTITLE4=Natalia - I Want You Back
TTITLE5=Dolly Parton - You Are
TTITLE6=The Sweet - The Ballroom Blitz
TTITLE7=Sonny and Cher - I Got You Babe
TTITLE8=Edith Piaf - Non, Je Ne Regrette Rien
TTITLE9=Louis Neefs - Laat Ons Een Bloem
TTITLE10=Bette Midler - The Rose
TTITLE11=Reo Speedwagon - Keep On Loving You
TTITLE12=Rob De Nijs - Banger Hart
TTITLE13=Scorpions - Wind Of Change
TTITLE14=Zucchero and Paul Young - Senza Una Donna (Without A Woman)
TTITLE15=2 Belgen - Lena
TTITLE16=Zager and Evans - In The Year 2525
TTITLE17=Claude François - Alexandrie Alexandra
TTITLE18=Al Martino - Volare
EXTD=
EXTT0=
EXTT1=
EXTT2=
EXTT3=
EXTT4=
EXTT5=
EXTT6=
EXTT7=
EXTT8=
EXTT9=
EXTT10=
EXTT11=
EXTT12=
EXTT13=
EXTT14=
EXTT15=
EXTT16=
EXTT17=
EXTT18=
PLAYORDER=
